<svg xmlns="http://www.w3.org/2000/svg" xmlns:xlink="http://www.w3.org/1999/xlink" viewBox="0 0 77.582 24.582" fill="#fff" fill-rule="evenodd" stroke="#000" stroke-linecap="round" stroke-linejoin="round"><use xlink:href="#A" x=".291" y=".291"/><symbol id="A" overflow="visible"><path d="M12.11 7.854c0-2.184-1.757-3.944-3.906-3.944H6.267v7.852h1.937a3.92 3.92 0 0 0 3.906-3.909m8.812 15.648h-7.111l-5.646-7.835H6.267v7.819H0V0h8.978c5.176 0 9.401 3.519 9.401 7.85 0 2.641-1.619 5-4.084 6.443l6.629 9.21m7.066-14.245c-1.655 0-3.063 2.249-3.063 5.034s1.408 5.038 3.063 5.038c1.687 0 3.099-2.252 3.099-5.038s-1.405-5.034-3.099-5.034m9.646 5.034c0 5.32-4.326 9.58-9.646 9.58s-9.612-4.26-9.612-9.58 4.294-9.578 9.612-9.578 9.646 4.262 9.646 9.578m14.706-9.188l-7.213 7.218V5.08h-6.265v18.406h6.265V16.02l7.537 7.466h7.886l-9.577-9.579 7.929-7.93v10.922c0 3.626 2.181 6.973 7.679 6.973 2.607 0 5-1.479 6.163-2.817l2.817 2.43h1.338V5.103h-6.265v11.901c-.706 1.232-1.689 2.006-3.208 2.006-1.542 0-2.249-.913-2.249-3.837V5.109z" stroke="none" fill="#6c3c97" fill-rule="nonzero"/></symbol></svg>